<svg xmlns:xlink="http://www.w3.org/1999/xlink" xmlns="http://www.w3.org/2000/svg" viewBox="0 0 101.59 121.83" width="101.59"  height="121.83" ><defs><style>.logo-red-1 {
                        fill: #db0533;
                    }

                    .logo-red-2 {
                        fill: #db0032;
                    }

                    .logo-gray {
                        fill: #020202;
                    }</style></defs> <polygon points="8.82 42.65 21.94 42.65 21.94 55.77 8.82 55.77 8.82 60.18 26.35 60.18 26.35 38.24 8.82 38.24 8.82 42.65" class="logo-red-1" fill="#DB0533"></polygon> <rect x="8.82" y="47.06" width="8.82" height="4.41" class="logo-red-1" fill="#DB0533"></rect> <rect x="37.01" y="91.07" width="4.41" height="21.94" class="logo-red-1" fill="#DB0533"></rect> <polygon points="13.11 73.42 17.53 73.42 17.53 69 13.11 69 13.11 64.59 8.82 64.59 8.82 86.65 13.11 86.65 13.11 73.42" class="logo-red-1" fill="#DB0533"></polygon> <polygon points="21.94 77.83 17.53 77.83 17.53 82.24 21.94 82.24 21.94 86.65 26.35 86.65 26.35 64.59 21.94 64.59 21.94 77.83" class="logo-red-1" fill="#DB0533"></polygon> <polygon points="44 77.83 35.18 77.83 35.18 64.59 30.76 64.59 30.76 82.24 37.02 82.24 37.02 86.65 41.43 86.65 41.43 82.24 48.41 82.24 48.41 64.59 44 64.59 44 77.83" class="logo-red-1" fill="#DB0533"></polygon> <rect x="30.76" y="47.06" width="17.65" height="4.41" class="logo-red-1" fill="#DB0533"></rect> <rect x="30.76" y="55.77" width="17.65" height="4.41" class="logo-red-2" fill="#DB0032"></rect> <path d="M0,121.83H57.24V29.42H0Zm52.7-4.41H4.41V33.83H37v4.41H30.76v4.41H48.41V38.24H41.55V33.83H52.83v83.59Z" class="logo-red-1" fill="#DB0533"></path> <rect x="8.82" y="91.07" width="17.65" height="4.41" class="logo-red-1" fill="#DB0533"></rect> <rect x="8.82" y="99.77" width="17.65" height="4.41" class="logo-red-1" fill="#DB0533"></rect> <rect x="8.82" y="108.59" width="17.65" height="4.41" class="logo-red-1" fill="#DB0533"></rect> <path d="M91.43,49.54a3.06,3.06,0,0,1,1.68.49,3.16,3.16,0,0,1,1.16,1.36,3.11,3.11,0,0,1,3.22-2.49,3.73,3.73,0,0,1,2.09.56,3.53,3.53,0,0,1,1.32,1.61,6.18,6.18,0,0,1,.46,2.51v5.2H88V53.86a6,6,0,0,1,.43-2.4A3.08,3.08,0,0,1,89.65,50,3.27,3.27,0,0,1,91.43,49.54Zm0,1.78A1.59,1.59,0,0,0,90.1,52a4,4,0,0,0-.48,2.24V57h4V54a3.57,3.57,0,0,0-.49-2A1.91,1.91,0,0,0,91.48,51.32Zm6-.6a2,2,0,0,0-1.75.82A4.55,4.55,0,0,0,95.2,54v3h4.58V53.78a3.82,3.82,0,0,0-.57-2.33A2,2,0,0,0,97.49,50.72Z" class="logo-gray b13-text" fill="#020202"></path> <path d="M101.36,41.43v1.63H91a7.88,7.88,0,0,1,1.12,1.47A10.43,10.43,0,0,1,93,46.35H91.38A10.2,10.2,0,0,0,89.83,44,5.64,5.64,0,0,0,88,42.49V41.43Z" class="logo-gray b13-text" fill="#020202"></path> <path d="M97.49,28.5a4,4,0,0,1,2.14.56,3.93,3.93,0,0,1,1.45,1.57,5,5,0,0,1,.51,2.3,4.69,4.69,0,0,1-.45,2.07,3.85,3.85,0,0,1-1.29,1.51,4.29,4.29,0,0,1-2,.72l-.26-1.63a3.72,3.72,0,0,0,2-.94,2.37,2.37,0,0,0,.65-1.73,2.67,2.67,0,0,0-.35-1.38,2.42,2.42,0,0,0-1-1,2.92,2.92,0,0,0-1.39-.34,2.75,2.75,0,0,0-1.35.32,2.16,2.16,0,0,0-.87.9A2.7,2.7,0,0,0,95,32.8v1.42L93.67,34V33.7a3.77,3.77,0,0,0-.57-2.29,2,2,0,0,0-1.65-.75,2,2,0,0,0-1.53.6A2.62,2.62,0,0,0,90,34.58a3.07,3.07,0,0,0,1.78.84l-.26,1.67a4.44,4.44,0,0,1-1.86-.76,3.8,3.8,0,0,1-1.21-1.46,4.37,4.37,0,0,1-.43-2,4.78,4.78,0,0,1,.42-2.07,3.17,3.17,0,0,1,1.18-1.37A3.27,3.27,0,0,1,91.41,29a2.81,2.81,0,0,1,1.66.53A3.13,3.13,0,0,1,94.17,31h0a3.1,3.1,0,0,1,.63-1.33A2.9,2.9,0,0,1,96,28.8,3.65,3.65,0,0,1,97.49,28.5Z" class="logo-gray b13-text" fill="#020202"></path> <polyline points="99.81 0 99.81 23.29 100.22 23.29 100.22 0" class="logo-gray b13-text" fill="#020202"></polyline></svg>